<svg xmlns="http://www.w3.org/2000/svg" version="1.1" xmlns:xlink="http://www.w3.org/1999/xlink" xmlns:svgjs="http://svgjs.dev/svgjs" width="100%" height="100%" viewBox="0 0 1000 600"><rect width="1000" height="600" x="0" y="0" fill="#1da1f2"/><g><rect width="333.3333333333333" height="333.3333333333333" y="254.54479552222944" fill="#f3c702" transform="matrix(0.5380450288638784,0,0,0.5380450288638784,0,73.36926948840085)" x="232.322509765625"/><path d="M368.05663173862 396.21147018870676L398.9098069645223 378.35432697114277Q403.9098070654402 375.4971840563325 407.62012460064517 377.6400412424402Q411.3502834060919 379.78289842854787 411.3502834060919 385.4971842581684L411.3502834060919 385.4971842581684L411.3502834060919 456.9257571284243L429.92171235235844 446.21147119788594L429.92171235235844 360.4971837535788L442.34234752368627 353.3543264665532L442.34234752368627 453.35432848491155L411.3502834060919 471.21147170247554Q406.4891721968661 474.0686146172858 402.6994895806942 471.9257574311781Q398.9098069645223 469.78290024507044 398.9098069645223 464.06861441544993L398.9098069645223 464.06861441544993L398.9098069645223 392.640041545194L380.4772669099479 403.35432747573236L380.4772669099479 489.0686149200396L368.05663173862 496.2114722070651L368.05663173862 396.21147018870676ZM429.92171235235844 346.21146917952757L442.34234752368627 353.3543264665532L429.92171235235844 360.4971837535788L417.4812359107888 353.3543264665532L429.92171235235844 346.21146917952757ZM417.4812359107888 353.3543264665532L429.92171235235844 360.4971837535788L429.92171235235844 446.21147119788594L417.4812359107888 439.06861391086034L417.4812359107888 353.3543264665532ZM417.4812359107888 439.06861391086034L429.92171235235844 446.21147119788594L411.3502834060919 456.9257571284243L398.9098069645223 449.7828998413988L417.4812359107888 439.06861391086034ZM386.6280606848866 385.4971842581684L398.9098069645223 392.640041545194L398.9098069645223 464.06861441544993Q398.9098069645223 469.78290024507044 402.62012449972724 471.9257574311781L402.62012449972724 471.9257574311781L390.33837822009156 464.7829001441525Q386.6280606848866 462.64004295804483 386.6280606848866 456.9257571284243L386.6280606848866 456.9257571284243L386.6280606848866 385.4971842581684ZM395.1994894293173 370.49718395541464L407.62012460064517 377.6400412424402Q403.9098070654402 375.4971840563325 398.9098069645223 378.35432697114277L398.9098069645223 378.35432697114277L368.05663173862 396.21147018870676L355.6359965672922 389.06861290168115L386.6280606848866 371.21146968411716Q391.48917189411236 368.3543267693069 395.1994894293173 370.49718395541464L395.1994894293173 370.49718395541464ZM355.6359965672922 389.06861290168115L368.05663173862 396.21147018870676L368.05663173862 496.2114722070651L355.6359965672922 489.0686149200396L355.6359965672922 389.06861290168115Z " fill="#1da1f2" transform="matrix(0.5380450288638784,0,0,0.5380450288638784,0,73.36926948840085)"/><path d="M661.2184645104917 395.4412062554241L691.596337983912 377.85915729974676Q696.5193116915016 375.0460294668384 700.1724707522924 377.1558753415197Q703.8451654230339 379.265721216201 703.8451654230339 384.8919768820177L703.8451654230339 384.8919768820177L703.8451654230339 455.220172704727L722.1304963369382 444.67094333132064L722.1304963369382 360.2771083440694L734.3597881661094 353.2442887617985L734.3597881661094 451.70376291359156L703.8451654230339 469.2858118692689Q699.0589409850995 472.0989397021773 695.3276394845057 469.989093827496Q691.596337983912 467.8792479528147 691.596337983912 462.252992286998L691.596337983912 462.252992286998L691.596337983912 391.92479646428865L673.4477563396629 402.474025837695L673.4477563396629 486.86786082494626L661.2184645104917 493.9006804072172L661.2184645104917 395.4412062554241ZM722.1304963369382 346.21146917952757L734.3597881661094 353.2442887617985L722.1304963369382 360.2771083440694L709.8816688978164 353.2442887617985L722.1304963369382 346.21146917952757ZM709.8816688978164 353.2442887617985L722.1304963369382 360.2771083440694L722.1304963369382 444.67094333132064L709.8816688978164 437.6381237490497L709.8816688978164 353.2442887617985ZM709.8816688978164 437.6381237490497L722.1304963369382 444.67094333132064L703.8451654230339 455.220172704727L691.596337983912 448.1873531224561L709.8816688978164 437.6381237490497ZM679.5037954243961 384.8919768820177L691.596337983912 391.92479646428865L691.596337983912 462.252992286998Q691.596337983912 467.8792479528147 695.2494970447027 469.989093827496L695.2494970447027 469.989093827496L683.1569544851868 462.9562742452251Q679.5037954243961 460.8464283705438 679.5037954243961 455.220172704727L679.5037954243961 455.220172704727L679.5037954243961 384.8919768820177ZM687.9431789231212 370.12305575924876L700.1724707522924 377.1558753415197Q696.5193116915016 375.0460294668384 691.596337983912 377.85915729974676L691.596337983912 377.85915729974676L661.2184645104917 395.4412062554241L648.9891726813205 388.4083866731532L679.5037954243961 370.82633771747584Q684.2900198623305 368.01320988456746 687.9431789231212 370.12305575924876L687.9431789231212 370.12305575924876ZM648.9891726813205 388.4083866731532L661.2184645104917 395.4412062554241L661.2184645104917 493.9006804072172L648.9891726813205 486.86786082494626L648.9891726813205 388.4083866731532ZM770.9304499939183 410.91340933642016L770.9304499939183 410.91340933642016L795.271819992556 396.84777017187827Q800.0385088205396 394.0346423389699 803.7112034912811 396.1444882136512Q807.3643625520718 398.2543340883325 807.3643625520718 403.88058975414924L807.3643625520718 403.88058975414924L807.3643625520718 424.97904850096205Q807.3643625520718 428.63220756175275 805.6647644863564 432.85189931111535Q803.9847020305916 437.0715910604779 801.2497166374862 440.66614329141635Q798.4951956344302 444.24115991240404 795.271819992556 446.0775072477748L795.271819992556 446.0775072477748L783.022992553434 453.1103268300457Q778.2367681154997 455.92345466295416 774.583609054709 453.81360878827286Q770.9304499939183 451.70376291359156 770.9304499939183 446.0775072477748L770.9304499939183 446.0775072477748L770.9304499939183 478.4284773262211L807.3643625520718 457.3300185794083L807.3643625520718 471.39565774395015L770.9304499939183 492.494116490763Q766.0074762863286 495.30724432367134 762.3543172255379 493.1973984489901Q758.7011581647471 491.0875525743088 758.7011581647471 485.46129690849205L758.7011581647471 485.46129690849205L758.7011581647471 432.01186808323297Q758.7011581647471 428.221959752787 760.3812206205118 424.0608748332766Q762.0612830762766 419.9193255237171 764.8744109091849 416.3247732927786Q767.6875387420934 412.74975667179086 770.9304499939183 410.91340933642016ZM795.271819992556 432.01186808323297L795.271819992556 410.91340933642016L770.9304499939183 424.97904850096205L770.9304499939183 446.0775072477748L795.271819992556 432.01186808323297ZM795.271819992556 450.2971989971374L807.3643625520718 457.3300185794083L770.9304499939183 478.4284773262211L758.7011581647471 471.39565774395015L795.271819992556 450.2971989971374ZM783.022992553434 403.88058975414924L795.271819992556 410.91340933642016L795.271819992556 432.01186808323297L783.022992553434 424.97904850096205L783.022992553434 403.88058975414924ZM758.7011581647471 439.0446876655039L770.9304499939183 446.0775072477748Q770.9304499939183 451.70376291359156 774.583609054709 453.81360878827286L774.583609054709 453.81360878827286L762.3543172255379 446.78078920600194Q758.7011581647471 444.67094333132064 758.7011581647471 439.0446876655039L758.7011581647471 439.0446876655039ZM783.022992553434 424.97904850096205L795.271819992556 432.01186808323297L770.9304499939183 446.0775072477748L758.7011581647471 439.0446876655039L783.022992553434 424.97904850096205ZM791.5991253218144 389.11166863138027L803.7112034912811 396.1444882136512Q800.0385088205396 394.0346423389699 795.271819992556 396.84777017187827L795.271819992556 396.84777017187827L770.9304499939183 410.91340933642016Q767.6875387420934 412.74975667179086 764.8744109091849 416.3247732927786Q762.0612830762766 419.9193255237171 760.3812206205118 424.0608748332766Q758.7011581647471 428.221959752787 758.7011581647471 432.01186808323297L758.7011581647471 432.01186808323297L758.7011581647471 485.46129690849205Q758.7011581647471 491.0875525743088 762.3543172255379 493.1973984489901L762.3543172255379 493.1973984489901L750.105489786416 486.1645788667191Q746.4523307256253 484.0547329920378 746.4523307256253 478.4284773262211L746.4523307256253 478.4284773262211L746.4523307256253 424.97904850096205Q746.4523307256253 421.189140170516 748.1519287913408 417.0280552510057Q749.8319912471054 412.88650594144616 752.6451190800138 409.2919537105077Q755.4582469129222 405.71693708951994 758.7011581647471 403.88058975414924L758.7011581647471 403.88058975414924L783.022992553434 389.81495058960735Q787.9459662610238 387.00182275669897 791.5991253218144 389.11166863138027L791.5991253218144 389.11166863138027ZM837.8789852951475 487.57114278317334L837.8789852951475 434.1217139579142L825.7864427356316 441.1545335401852L825.7864427356316 427.0888943756433L837.8789852951475 420.0560747933724L837.8789852951475 405.9904356288305L850.1278127342692 398.95761604655956L850.1278127342692 427.0888943756433Q850.1278127342692 423.2989860451973 851.807875190034 419.137901125687Q853.4879376457988 414.99635181612746 856.2424586488548 411.40179958518894Q858.9774440419602 407.82678296420124 862.2203552937851 405.9904356288305L862.2203552937851 405.9904356288305L874.4496471229563 398.95761604655956L874.4496471229563 413.02325521110146L850.1278127342692 427.0888943756433L850.1278127342692 480.5383232009024L874.4496471229563 466.47268403636053L874.4496471229563 480.5383232009024L850.1278127342692 494.60396236544426Q845.2048390266797 497.41709019835264 841.532144355938 495.30724432367134Q837.8789852951475 493.1973984489901 837.8789852951475 487.57114278317334L837.8789852951475 487.57114278317334ZM862.2203552937851 459.43986445408956L874.4496471229563 466.47268403636053L850.1278127342692 480.5383232009024L837.8789852951475 473.50550361863145L862.2203552937851 459.43986445408956ZM862.2203552937851 391.92479646428865L874.4496471229563 398.95761604655956L862.2203552937851 405.9904356288305Q858.9774440419602 407.82678296420124 856.2424586488548 411.40179958518894Q853.4879376457988 414.99635181612746 851.807875190034 419.137901125687Q850.1278127342692 423.2989860451973 850.1278127342692 427.0888943756433L850.1278127342692 427.0888943756433L837.8789852951475 420.0560747933724Q837.8789852951475 416.2661664629264 839.5785833608628 412.105081543416Q841.2586458166276 407.9635322338565 844.071773649536 404.368980002918Q846.8849014824443 400.7939633819303 850.1278127342692 398.95761604655956L850.1278127342692 398.95761604655956L862.2203552937851 391.92479646428865ZM825.7864427356316 413.02325521110146L837.8789852951475 420.0560747933724L825.7864427356316 427.0888943756433L813.5571509064605 420.0560747933724L825.7864427356316 413.02325521110146ZM825.7864427356316 427.0888943756433L837.8789852951475 434.1217139579142L837.8789852951475 487.57114278317334Q837.8789852951475 493.1973984489901 841.532144355938 495.30724432367134L841.532144355938 495.30724432367134L829.4396017964223 488.2744247414004Q825.7864427356316 486.1645788667191 825.7864427356316 480.5383232009024L825.7864427356316 480.5383232009024L825.7864427356316 427.0888943756433ZM837.8789852951475 391.92479646428865L850.1278127342692 398.95761604655956L837.8789852951475 405.9904356288305L825.7864427356316 398.95761604655956L837.8789852951475 391.92479646428865ZM825.7864427356316 398.95761604655956L837.8789852951475 405.9904356288305L837.8789852951475 420.0560747933724L825.7864427356316 413.02325521110146L825.7864427356316 398.95761604655956ZM813.5571509064605 420.0560747933724L825.7864427356316 427.0888943756433L825.7864427356316 441.1545335401852L813.5571509064605 434.1217139579142L813.5571509064605 420.0560747933724ZM926.7855461810225 476.31863145153983L926.7855461810225 407.3969995452847L939.0148380101936 400.3641799630138L939.0148380101936 469.2858118692689L954.7605396305001 460.1431464123167L954.7605396305001 391.2215145060615L967.009367069622 384.1886949237906L967.009367069622 439.0446876655039Q967.009367069622 442.69784672629464 965.3097690039066 446.9175384756572Q963.6297065481418 451.1372302250197 960.8165787152334 454.73178245595824Q958.0034508823251 458.30679907694594 954.7605396305001 460.1431464123167L954.7605396305001 460.1431464123167Q954.7605396305001 463.79630547310745 953.0804771747354 468.01599722247Q951.4004147189708 472.23568897183253 948.6458937159146 475.830241202771Q945.9109083228093 479.40525782375875 942.6679970709843 481.2416051591295L942.6679970709843 481.2416051591295L923.112851510281 492.494116490763Q918.3461626822973 495.30724432367134 914.6734680115558 493.1973984489901Q911.0203089507651 491.0875525743088 911.0203089507651 485.46129690849205L911.0203089507651 485.46129690849205L926.7855461810225 476.31863145153983ZM898.791017121594 478.4284773262211L898.791017121594 423.57248458450783L911.0203089507651 416.5396650022369L911.0203089507651 485.46129690849205Q906.0973352431754 488.2744247414004 902.4441761823847 486.1645788667191Q898.791017121594 484.0547329920378 898.791017121594 478.4284773262211L898.791017121594 478.4284773262211ZM914.5367187419006 469.2858118692689L926.7855461810225 476.31863145153983L911.0203089507651 485.46129690849205L898.791017121594 478.4284773262211L914.5367187419006 469.2858118692689ZM898.791017121594 478.4284773262211L911.0203089507651 485.46129690849205Q911.0203089507651 491.0875525743088 914.6734680115558 493.1973984489901L914.6734680115558 493.1973984489901L902.4441761823847 486.1645788667191Q898.791017121594 484.0547329920378 898.791017121594 478.4284773262211L898.791017121594 478.4284773262211ZM954.7605396305001 377.1558753415197L967.009367069622 384.1886949237906L954.7605396305001 391.2215145060615L942.6679970709843 384.1886949237906L954.7605396305001 377.1558753415197ZM942.6679970709843 384.1886949237906L954.7605396305001 391.2215145060615L954.7605396305001 460.1431464123167L942.6679970709843 453.1103268300457L942.6679970709843 384.1886949237906ZM942.6679970709843 453.1103268300457L954.7605396305001 460.1431464123167L939.0148380101936 469.2858118692689L926.7855461810225 462.252992286998L942.6679970709843 453.1103268300457ZM926.7855461810225 393.3313603807428L939.0148380101936 400.3641799630138L926.7855461810225 407.3969995452847L914.5367187419006 400.3641799630138L926.7855461810225 393.3313603807428ZM914.5367187419006 400.3641799630138L926.7855461810225 407.3969995452847L926.7855461810225 476.31863145153983L914.5367187419006 469.2858118692689L914.5367187419006 400.3641799630138ZM898.791017121594 409.50684541996594L911.0203089507651 416.5396650022369L898.791017121594 423.57248458450783L886.5421896824721 416.5396650022369L898.791017121594 409.50684541996594ZM886.5421896824721 416.5396650022369L898.791017121594 423.57248458450783L898.791017121594 478.4284773262211Q898.791017121594 484.0547329920378 902.4441761823847 486.1645788667191L902.4441761823847 486.1645788667191L890.2148843532136 479.13175928444826Q886.5421896824721 477.0219134097669 886.5421896824721 471.39565774395015L886.5421896824721 471.39565774395015L886.5421896824721 416.5396650022369ZM1003.5800288974309 410.91340933642016L1003.5800288974309 410.91340933642016L1027.901863286118 396.84777017187827Q1032.6880877240521 394.0346423389699 1036.341246784843 396.1444882136512Q1040.0139414555845 398.2543340883325 1040.0139414555845 403.88058975414924L1040.0139414555845 403.88058975414924L1040.0139414555845 457.3300185794083Q1040.0139414555845 460.983177640199 1038.314343389869 465.2028693895616Q1036.6342809341043 469.42256113892415 1033.879759931048 473.01711336986267Q1031.1447745379428 476.59212999085037 1027.901863286118 478.4284773262211L1027.901863286118 478.4284773262211L1003.5800288974309 492.494116490763Q998.6570551898412 495.30724432367134 995.0038961290504 493.1973984489901Q991.331201458309 491.0875525743088 991.331201458309 485.46129690849205L991.331201458309 485.46129690849205L991.331201458309 432.01186808323297Q991.331201458309 428.221959752787 993.0307995240245 424.0608748332766Q994.7108619797892 419.9193255237171 997.5239898126976 416.3247732927786Q1000.337117645606 412.74975667179086 1003.5800288974309 410.91340933642016ZM1003.5800288974309 424.97904850096205L1003.5800288974309 478.4284773262211L1027.901863286118 464.36283816167924L1027.901863286118 410.91340933642016L1003.5800288974309 424.97904850096205ZM1015.6725714569468 403.88058975414924L1027.901863286118 410.91340933642016L1027.901863286118 464.36283816167924L1015.6725714569468 457.3300185794083L1015.6725714569468 403.88058975414924ZM1015.6725714569468 457.3300185794083L1027.901863286118 464.36283816167924L1003.5800288974309 478.4284773262211L991.331201458309 471.39565774395015L1015.6725714569468 457.3300185794083ZM1024.2487042253272 389.11166863138027L1036.341246784843 396.1444882136512Q1032.6880877240521 394.0346423389699 1027.901863286118 396.84777017187827L1027.901863286118 396.84777017187827L1003.5800288974309 410.91340933642016Q1000.337117645606 412.74975667179086 997.5239898126976 416.3247732927786Q994.7108619797892 419.9193255237171 993.0307995240245 424.0608748332766Q991.331201458309 428.221959752787 991.331201458309 432.01186808323297L991.331201458309 432.01186808323297L991.331201458309 485.46129690849205Q991.331201458309 491.0875525743088 995.0038961290504 493.1973984489901L995.0038961290504 493.1973984489901L982.7550686899285 486.1645788667191Q979.1019096291379 484.0547329920378 979.1019096291379 478.4284773262211L979.1019096291379 478.4284773262211L979.1019096291379 424.97904850096205Q979.1019096291379 421.189140170516 980.7819720849026 417.0280552510057Q982.4815701506182 412.88650594144616 985.2946979835265 409.2919537105077Q988.1078258164348 405.71693708951994 991.331201458309 403.88058975414924L991.331201458309 403.88058975414924L1015.6725714569468 389.81495058960735Q1020.5955451645364 387.00182275669897 1024.2487042253272 389.11166863138027L1024.2487042253272 389.11166863138027ZM1064.4725251139266 493.9006804072172L1064.4725251139266 423.57248458450783L1076.7213525530487 416.5396650022369L1076.7213525530487 430.60530416677875L1088.8138951125645 423.57248458450783Q1088.8138951125645 419.78257625406184 1090.4939575683293 415.62149133455154Q1092.1935556340445 411.479942024992 1095.006683466953 407.8853897940535Q1097.8198112998614 404.3103731730658 1101.0431869417355 402.474025837695L1101.0431869417355 402.474025837695L1113.1552651112022 395.4412062554241L1113.1552651112022 409.50684541996594L1101.0431869417355 416.5396650022369Q1101.0431869417355 420.1928240630276 1099.3631244859707 424.4125158123902Q1097.6830620302062 428.63220756175275 1094.8699341972977 432.2267597926912Q1092.0568063643893 435.80177641367897 1088.8138951125645 437.6381237490497L1088.8138951125645 437.6381237490497L1076.7213525530487 444.67094333132064L1076.7213525530487 486.86786082494626L1064.4725251139266 493.9006804072172ZM1052.2432332847557 416.5396650022369L1064.4725251139266 423.57248458450783L1064.4725251139266 493.9006804072172L1052.2432332847557 486.86786082494626L1052.2432332847557 416.5396650022369ZM1101.0431869417355 388.4083866731532L1113.1552651112022 395.4412062554241L1101.0431869417355 402.474025837695Q1097.8198112998614 404.3103731730658 1095.006683466953 407.8853897940535Q1092.1935556340445 411.479942024992 1090.4939575683293 415.62149133455154Q1088.8138951125645 419.78257625406184 1088.8138951125645 423.57248458450783L1088.8138951125645 423.57248458450783L1076.7213525530487 416.5396650022369Q1076.7213525530487 412.74975667179086 1078.4014150088133 408.5886717522806Q1080.1010130745287 404.447122442721 1082.8359984676342 400.85257021178256Q1085.5709838607395 397.27755359079487 1088.8138951125645 395.4412062554241L1088.8138951125645 395.4412062554241L1101.0431869417355 388.4083866731532ZM1076.7213525530487 416.5396650022369L1088.8138951125645 423.57248458450783L1076.7213525530487 430.60530416677875L1064.4725251139266 423.57248458450783L1076.7213525530487 416.5396650022369ZM1064.4725251139266 409.50684541996594L1076.7213525530487 416.5396650022369L1064.4725251139266 423.57248458450783L1052.2432332847557 416.5396650022369L1064.4725251139266 409.50684541996594ZM1180.1038004124314 465.76940207813345L1168.0112578529154 472.80222166040437L1168.0112578529154 444.67094333132064L1143.6698878542777 458.7365824958625L1143.6698878542777 486.86786082494626L1131.4405960251065 493.9006804072172L1131.4405960251065 381.3755670908822L1143.6698878542777 374.3427475086113L1143.6698878542777 444.67094333132064L1168.0112578529154 430.60530416677875L1168.0112578529154 402.474025837695L1180.1038004124314 395.4412062554241L1180.1038004124314 409.50684541996594Q1180.1038004124314 413.1600044807567 1178.404202346716 417.37969623011924Q1176.724139890951 421.59938797948183 1173.9891544978457 425.1939402104203Q1171.2346334947897 428.76895683140805 1168.0112578529154 430.60530416677875L1168.0112578529154 430.60530416677875Q1172.7779466808993 427.7921763338704 1176.4506413516406 429.90202220855167Q1180.1038004124314 432.01186808323297 1180.1038004124314 437.6381237490497L1180.1038004124314 437.6381237490497L1180.1038004124314 465.76940207813345ZM1164.3385631821739 422.86920262628075L1176.4506413516406 429.90202220855167Q1172.7779466808993 427.7921763338704 1168.0112578529154 430.60530416677875L1168.0112578529154 430.60530416677875L1155.7624304137935 423.57248458450783Q1160.6854041213833 420.75935675159946 1164.3385631821739 422.86920262628075L1164.3385631821739 422.86920262628075ZM1168.0112578529154 388.4083866731532L1180.1038004124314 395.4412062554241L1168.0112578529154 402.474025837695L1155.7624304137935 395.4412062554241L1168.0112578529154 388.4083866731532ZM1155.7624304137935 437.6381237490497L1168.0112578529154 444.67094333132064L1168.0112578529154 472.80222166040437L1155.7624304137935 465.76940207813345L1155.7624304137935 437.6381237490497ZM1155.7624304137935 395.4412062554241L1168.0112578529154 402.474025837695L1168.0112578529154 430.60530416677875L1155.7624304137935 423.57248458450783L1155.7624304137935 395.4412062554241ZM1155.7624304137935 423.57248458450783L1168.0112578529154 430.60530416677875L1143.6698878542777 444.67094333132064L1131.4405960251065 437.6381237490497L1155.7624304137935 423.57248458450783ZM1131.4405960251065 367.3099279263404L1143.6698878542777 374.3427475086113L1131.4405960251065 381.3755670908822L1119.1917685859846 374.3427475086113L1131.4405960251065 367.3099279263404ZM1119.1917685859846 374.3427475086113L1131.4405960251065 381.3755670908822L1131.4405960251065 493.9006804072172L1119.1917685859846 486.86786082494626L1119.1917685859846 374.3427475086113ZM1214.2715822162975 493.9006804072172L1214.2715822162975 493.9006804072172Q1210.0518904669352 496.28402482120896 1207.3169050738297 494.74071163509956Q1204.5819196807242 493.1973984489901 1204.5819196807242 488.2744247414004L1204.5819196807242 488.2744247414004Q1204.5819196807242 483.35145103381075 1207.3169050738297 478.56522659587637Q1210.0518904669352 473.779002157942 1214.2715822162975 471.39565774395015L1214.2715822162975 471.39565774395015Q1218.4912739656602 469.0123133299584 1221.2457949687162 470.55562651606783Q1223.9807803618214 472.0989397021773 1223.9807803618214 477.0219134097669L1223.9807803618214 477.0219134097669Q1223.9807803618214 481.9448871173566 1221.2457949687162 486.73111155529097Q1218.4912739656602 491.51733599322534 1214.2715822162975 493.9006804072172ZM1209.0751099693975 463.52280693379686L1221.3044017985685 470.55562651606783Q1218.4912739656602 469.0123133299584 1214.2715822162975 471.39565774395015L1214.2715822162975 471.39565774395015Q1210.0518904669352 473.779002157942 1207.3169050738297 478.56522659587637Q1204.5819196807242 483.35145103381075 1204.5819196807242 488.2744247414004L1204.5819196807242 488.2744247414004Q1204.5819196807242 493.1973984489901 1207.2387626340267 494.74071163509956L1207.2387626340267 494.74071163509956L1195.146220074511 487.70789205282864Q1192.3330922416026 486.1645788667191 1192.3330922416026 481.2416051591295L1192.3330922416026 481.2416051591295Q1192.3330922416026 476.31863145153983 1195.0876132446585 471.53240701360545Q1197.8225986377638 466.74618257567107 1202.1790396567817 464.36283816167924L1202.1790396567817 464.36283816167924Q1206.3987314061442 461.9794937476874 1209.0751099693975 463.52280693379686L1209.0751099693975 463.52280693379686ZM1260.688191459286 382.78213100733643L1260.688191459286 382.78213100733643L1291.0856005426567 365.2000820516591Q1295.8522893706404 362.3869542187507 1299.5835908712343 364.496800093432Q1303.314892371828 366.60664596811324 1303.314892371828 372.23290163393L1303.314892371828 372.23290163393L1303.314892371828 386.2985407984719L1291.0856005426567 393.3313603807428L1291.0856005426567 379.265721216201L1260.688191459286 396.84777017187827L1260.688191459286 478.4284773262211L1291.0856005426567 460.8464283705438L1291.0856005426567 446.78078920600194L1303.314892371828 439.74796962373097L1303.314892371828 453.81360878827286Q1303.314892371828 457.4667678490636 1301.5566874762603 461.68645959842615Q1299.7984825806925 465.9061513477887 1297.063497187587 469.50070357872715Q1294.3089761845308 473.0757201997149 1291.0856005426567 474.91206753508567L1291.0856005426567 474.91206753508567L1260.688191459286 492.494116490763Q1255.7652177516961 495.30724432367134 1252.1120586909053 493.1973984489901Q1248.4588996301145 491.0875525743088 1248.4588996301145 485.46129690849205L1248.4588996301145 485.46129690849205L1248.4588996301145 403.88058975414924Q1248.4588996301145 400.0906814237032 1250.1389620858793 395.92959650419294Q1251.8385601515947 391.78804719463335 1254.651687984503 388.1934949636949Q1257.4648158174116 384.61847834270714 1260.688191459286 382.78213100733643ZM1291.0856005426567 432.71515004146005L1303.314892371828 439.74796962373097L1291.0856005426567 446.78078920600194L1278.8367731035348 439.74796962373097L1291.0856005426567 432.71515004146005ZM1278.8367731035348 439.74796962373097L1291.0856005426567 446.78078920600194L1291.0856005426567 460.8464283705438L1278.8367731035348 453.81360878827286L1278.8367731035348 439.74796962373097ZM1278.8367731035348 453.81360878827286L1291.0856005426567 460.8464283705438L1260.688191459286 478.4284773262211L1248.4588996301145 471.39565774395015L1278.8367731035348 453.81360878827286ZM1278.8367731035348 372.23290163393L1291.0856005426567 379.265721216201L1291.0856005426567 393.3313603807428L1278.8367731035348 386.2985407984719L1278.8367731035348 372.23290163393ZM1287.4129058719154 357.4639805111611L1299.661733311037 364.496800093432Q1295.8522893706404 362.3869542187507 1291.0856005426567 365.2000820516591L1291.0856005426567 365.2000820516591L1260.688191459286 382.78213100733643Q1257.4648158174116 384.61847834270714 1254.651687984503 388.1934949636949Q1251.8385601515947 391.78804719463335 1250.1389620858793 395.92959650419294Q1248.4588996301145 400.0906814237032 1248.4588996301145 403.88058975414924L1248.4588996301145 403.88058975414924L1248.4588996301145 485.46129690849205Q1248.4588996301145 491.0875525743088 1252.1120586909053 493.1973984489901L1252.1120586909053 493.1973984489901L1239.8827668617341 486.1645788667191Q1236.2296078009435 484.0547329920378 1236.2296078009435 478.4284773262211L1236.2296078009435 478.4284773262211L1236.2296078009435 396.84777017187827Q1236.2296078009435 393.05786184143227 1237.909670256708 388.89677692192197Q1239.589732712473 384.75522761236243 1242.4028605453814 381.16067538142397Q1245.2159883782897 377.5856587604362 1248.4588996301145 375.7493114250655L1248.4588996301145 375.7493114250655L1278.8367731035348 358.16726246938816Q1283.7597468111244 355.3541346364798 1287.4129058719154 357.4639805111611L1287.4129058719154 357.4639805111611ZM1370.2634276730569 427.0888943756433L1339.8855541996368 444.67094333132064Q1334.962580492047 447.484071164229 1331.3094214312564 445.3742252895477Q1327.6562623704656 443.2643794148664 1327.6562623704656 437.6381237490497L1327.6562623704656 437.6381237490497L1327.6562623704656 403.88058975414924Q1327.6562623704656 400.0906814237032 1329.3363248262303 395.92959650419294Q1331.016387281995 391.78804719463335 1333.8295151149034 388.1934949636949Q1336.642642947812 384.61847834270714 1339.8855541996368 382.78213100733643L1339.8855541996368 382.78213100733643L1370.2634276730569 365.2000820516591Q1375.0496521109915 362.3869542187507 1378.7809536115851 364.496800093432Q1382.512255112179 366.60664596811324 1382.512255112179 372.23290163393L1382.512255112179 372.23290163393L1382.512255112179 391.92479646428865L1370.2634276730569 398.95761604655956L1370.2634276730569 379.265721216201L1339.8855541996368 396.84777017187827L1339.8855541996368 430.60530416677875L1370.2634276730569 413.02325521110146Q1375.0496521109915 410.2101273781931 1378.7809536115851 412.3199732528744Q1382.512255112179 414.4298191275556 1382.512255112179 420.0560747933724L1382.512255112179 420.0560747933724L1382.512255112179 453.81360878827286Q1382.512255112179 457.4667678490636 1380.7540502166112 461.68645959842615Q1378.9958453210434 465.9061513477887 1376.2413243179874 469.50070357872715Q1373.5063389248821 473.0757201997149 1370.2634276730569 474.91206753508567L1370.2634276730569 474.91206753508567L1339.8855541996368 492.494116490763Q1334.962580492047 495.30724432367134 1331.3094214312564 493.1973984489901Q1327.6562623704656 491.0875525743088 1327.6562623704656 485.46129690849205L1327.6562623704656 485.46129690849205L1327.6562623704656 471.39565774395015L1339.8855541996368 464.36283816167924L1339.8855541996368 478.4284773262211L1370.2634276730569 460.8464283705438L1370.2634276730569 427.0888943756433ZM1358.034135843886 420.0560747933724L1370.2634276730569 427.0888943756433L1370.2634276730569 460.8464283705438L1358.034135843886 453.81360878827286L1358.034135843886 420.0560747933724ZM1358.034135843886 453.81360878827286L1370.2634276730569 460.8464283705438L1339.8855541996368 478.4284773262211L1327.6562623704656 471.39565774395015L1358.034135843886 453.81360878827286ZM1358.034135843886 372.23290163393L1370.2634276730569 379.265721216201L1370.2634276730569 398.95761604655956L1358.034135843886 391.92479646428865L1358.034135843886 372.23290163393ZM1327.6562623704656 457.3300185794083L1339.8855541996368 464.36283816167924L1327.6562623704656 471.39565774395015L1315.4074349313437 464.36283816167924L1327.6562623704656 457.3300185794083ZM1315.4074349313437 464.36283816167924L1327.6562623704656 471.39565774395015L1327.6562623704656 485.46129690849205Q1327.6562623704656 491.0875525743088 1331.3094214312564 493.1973984489901L1331.3094214312564 493.1973984489901L1319.0605939921345 486.1645788667191Q1315.4074349313437 484.0547329920378 1315.4074349313437 478.4284773262211L1315.4074349313437 478.4284773262211L1315.4074349313437 464.36283816167924ZM1366.6102686122663 405.2871536706034L1378.8395604414375 412.3199732528744Q1375.0496521109915 410.2101273781931 1370.2634276730569 413.02325521110146L1370.2634276730569 413.02325521110146L1339.8855541996368 430.60530416677875L1327.6562623704656 423.57248458450783L1358.034135843886 405.9904356288305Q1362.9571095514757 403.1773077959221 1366.6102686122663 405.2871536706034L1366.6102686122663 405.2871536706034ZM1366.6102686122663 357.4639805111611L1378.8395604414375 364.496800093432Q1375.0496521109915 362.3869542187507 1370.2634276730569 365.2000820516591L1370.2634276730569 365.2000820516591L1339.8855541996368 382.78213100733643Q1336.642642947812 384.61847834270714 1333.8295151149034 388.1934949636949Q1331.016387281995 391.78804719463335 1329.3363248262303 395.92959650419294Q1327.6562623704656 400.0906814237032 1327.6562623704656 403.88058975414924L1327.6562623704656 403.88058975414924L1327.6562623704656 437.6381237490497Q1327.6562623704656 443.2643794148664 1331.3094214312564 445.3742252895477L1331.3094214312564 445.3742252895477L1319.0605939921345 438.3414057072768Q1315.4074349313437 436.2315598325955 1315.4074349313437 430.60530416677875L1315.4074349313437 430.60530416677875L1315.4074349313437 396.84777017187827Q1315.4074349313437 393.05786184143227 1317.1070329970594 388.89677692192197Q1318.787095452824 384.75522761236243 1321.6002232857322 381.16067538142397Q1324.4133511186405 377.5856587604362 1327.6562623704656 375.7493114250655L1327.6562623704656 375.7493114250655L1358.034135843886 358.16726246938816Q1362.9571095514757 355.3541346364798 1366.6102686122663 357.4639805111611L1366.6102686122663 357.4639805111611ZM1443.4047513286748 458.7365824958625L1443.4047513286748 433.41843199968713L1419.0829169399876 447.484071164229Q1414.159943232398 450.2971989971374 1410.4872485616565 448.1873531224561Q1406.8340895008657 446.0775072477748 1406.8340895008657 440.45125158195805L1406.8340895008657 440.45125158195805L1406.8340895008657 402.474025837695L1419.0829169399876 395.4412062554241L1419.0829169399876 395.4412062554241L1455.4972938881906 374.3427475086113L1455.4972938881906 388.4083866731532L1431.1754594995036 402.474025837695Q1426.3892350615693 405.2871536706034 1422.7360760007787 403.1773077959221Q1419.0829169399876 401.06746192124086 1419.0829169399876 395.4412062554241L1419.0829169399876 395.4412062554241L1419.0829169399876 433.41843199968713L1443.4047513286748 419.3527928351453Q1448.190975766609 416.5396650022369 1451.8441348274 418.6495108769182Q1455.4972938881906 420.75935675159946 1455.4972938881906 426.3856124174162L1455.4972938881906 426.3856124174162L1455.4972938881906 451.70376291359156Q1455.4972938881906 455.3569219743823 1453.8172314324258 459.57661372374486Q1452.137168976661 463.79630547310745 1449.382647973605 467.3908577040459Q1446.6476625804996 470.9658743250336 1443.4047513286748 472.80222166040437L1443.4047513286748 472.80222166040437L1406.8340895008657 493.9006804072172L1406.8340895008657 479.8350412426753L1443.4047513286748 458.7365824958625ZM1431.1754594995036 426.3856124174162L1443.4047513286748 433.41843199968713L1443.4047513286748 458.7365824958625L1431.1754594995036 451.70376291359156L1431.1754594995036 426.3856124174162ZM1431.1754594995036 451.70376291359156L1443.4047513286748 458.7365824958625L1406.8340895008657 479.8350412426753L1394.6047976716945 472.80222166040437L1431.1754594995036 451.70376291359156ZM1394.6047976716945 472.80222166040437L1406.8340895008657 479.8350412426753L1406.8340895008657 493.9006804072172L1394.6047976716945 486.86786082494626L1394.6047976716945 472.80222166040437ZM1443.4047513286748 367.3099279263404L1455.4972938881906 374.3427475086113L1419.0829169399876 395.4412062554241L1406.8340895008657 388.4083866731532L1443.4047513286748 367.3099279263404ZM1439.751592267884 411.61669129464724L1451.8441348274 418.6495108769182Q1448.190975766609 416.5396650022369 1443.4047513286748 419.3527928351453L1443.4047513286748 419.3527928351453L1419.0829169399876 433.41843199968713L1406.8340895008657 426.3856124174162L1431.1754594995036 412.3199732528744Q1436.0984332070932 409.50684541996594 1439.751592267884 411.61669129464724L1439.751592267884 411.61669129464724ZM1406.8340895008657 388.4083866731532L1419.0829169399876 395.4412062554241Q1419.0829169399876 401.06746192124086 1422.7360760007787 403.1773077959221L1422.7360760007787 403.1773077959221L1410.4872485616565 396.1444882136512Q1406.8340895008657 394.0346423389699 1406.8340895008657 388.4083866731532L1406.8340895008657 388.4083866731532ZM1394.6047976716945 395.4412062554241L1406.8340895008657 402.474025837695L1406.8340895008657 440.45125158195805Q1406.8340895008657 446.0775072477748 1410.4872485616565 448.1873531224561L1410.4872485616565 448.1873531224561L1398.2579567324856 441.1545335401852Q1394.6047976716945 439.0446876655039 1394.6047976716945 433.41843199968713L1394.6047976716945 433.41843199968713L1394.6047976716945 395.4412062554241ZM1406.8340895008657 388.4083866731532L1419.0829169399876 395.4412062554241L1406.8340895008657 402.474025837695L1394.6047976716945 395.4412062554241L1406.8340895008657 388.4083866731532ZM1504.3167831551214 378.56243925797384L1504.3167831551214 378.56243925797384Q1510.7830700488205 374.77253092752784 1516.331183274834 375.5344197156072Q1521.8988321107986 376.3158441136373 1525.2784926322788 380.75042757245814Q1528.6386175438083 385.1654754213282 1528.6386175438083 392.6280784225157L1528.6386175438083 392.6280784225157L1528.6386175438083 448.8906350806832Q1528.6386175438083 454.51689074649994 1526.685056548733 460.70967910088854Q1524.711959943707 466.9024674552771 1521.3322994222267 472.80222166040437Q1517.9526389007465 478.70197586553167 1513.5961978817288 483.48820030346604Q1509.239756862711 488.2744247414004 1504.3167831551214 491.0875525743088L1504.3167831551214 491.0875525743088Q1497.850496261422 494.74071163509956 1492.2828474254577 494.0374296768724Q1486.7347341994441 493.33414771864534 1483.355073677964 488.89956425982456Q1479.9754131564837 484.4845164109544 1479.9754131564837 477.0219134097669L1479.9754131564837 477.0219134097669L1479.9754131564837 420.75935675159946Q1479.9754131564837 415.1331010857827 1481.9485097615097 408.94031273139416Q1483.9216063665358 402.74752437700556 1487.301266888016 396.84777017187827Q1490.6613917995453 390.94801596675103 1495.095975258366 386.16179152881665Q1499.530558717187 381.3755670908822 1504.3167831551214 378.56243925797384ZM1516.5460749842923 455.92345466295416L1516.5460749842923 399.66089800478665Q1516.5460749842923 394.0346423389699 1512.8929159235017 391.92479646428865Q1509.239756862711 389.81495058960735 1504.3167831551214 392.6280784225157L1504.3167831551214 392.6280784225157Q1501.0738719032963 394.4644257578865 1498.338886510191 398.0394423788742Q1495.5843655071349 401.63399460981265 1493.9043030513703 405.77554391937224Q1492.2242405956054 409.93662883888254 1492.2242405956054 413.72653716932854L1492.2242405956054 413.72653716932854L1492.2242405956054 469.989093827496Q1492.2242405956054 475.61534949331275 1495.8773996563962 477.725195367994Q1499.530558717187 479.8350412426753 1504.3167831551214 477.0219134097669L1504.3167831551214 477.0219134097669Q1507.5401587969955 475.18556607439615 1510.3532866299038 471.61054945340845Q1513.166414462812 468.01599722247 1514.8660125285278 463.79630547310745Q1516.5460749842923 459.57661372374486 1516.5460749842923 455.92345466295416L1516.5460749842923 455.92345466295416ZM1500.6636240943305 384.8919768820177L1512.8929159235017 391.92479646428865Q1516.5460749842923 394.0346423389699 1516.5460749842923 399.66089800478665L1516.5460749842923 399.66089800478665L1516.5460749842923 455.92345466295416Q1516.5460749842923 459.57661372374486 1514.8660125285278 463.79630547310745Q1513.166414462812 468.01599722247 1510.3532866299038 471.61054945340845Q1507.5401587969955 475.18556607439615 1504.3167831551214 477.0219134097669L1504.3167831551214 477.0219134097669Q1499.530558717187 479.8350412426753 1495.8773996563962 477.725195367994L1495.8773996563962 477.725195367994L1483.6285722172743 470.6923757857231Q1487.301266888016 472.80222166040437 1492.2242405956054 469.989093827496L1492.2242405956054 469.989093827496Q1495.3108669678245 468.15274649212523 1498.1239948007328 464.57772987113754Q1500.9371226336411 460.983177640199 1502.6171850894057 456.7634858908365Q1504.3167831551214 452.54379414147394 1504.3167831551214 448.8906350806832L1504.3167831551214 448.8906350806832L1504.3167831551214 392.6280784225157Q1504.3167831551214 387.00182275669897 1500.6636240943305 384.8919768820177L1500.6636240943305 384.8919768820177ZM1509.239756862711 370.12305575924876L1521.3322994222267 377.1558753415197Q1517.9526389007465 375.3195280061489 1513.5961978817288 375.5344197156072Q1509.239756862711 375.7493114250655 1504.3167831551214 378.56243925797384L1504.3167831551214 378.56243925797384Q1499.530558717187 381.3755670908822 1495.095975258366 386.16179152881665Q1490.6613917995453 390.94801596675103 1487.301266888016 396.84777017187827Q1483.9216063665358 402.74752437700556 1481.9485097615097 408.94031273139416Q1479.9754131564837 415.1331010857827 1479.9754131564837 420.75935675159946L1479.9754131564837 420.75935675159946L1479.9754131564837 477.0219134097669Q1479.9754131564837 482.64816907558367 1481.9485097615097 486.59436228563567Q1483.9216063665358 490.52101988573696 1487.301266888016 492.494116490763L1487.301266888016 492.494116490763L1475.052439448894 485.46129690849205Q1471.8290638070198 483.48820030346604 1469.777824762191 479.56154270336475Q1467.7461213273123 475.61534949331275 1467.7461213273123 469.989093827496L1467.7461213273123 469.989093827496L1467.7461213273123 413.72653716932854Q1467.7461213273123 408.1002815035118 1469.7192179323383 401.90749314912324Q1471.6727789274137 395.71470479473464 1475.130581888697 389.81495058960735Q1478.5688492400295 383.91519638448005 1482.9252902590474 379.1289719465457Q1487.301266888016 374.3427475086113 1492.2242405956054 371.5296196757029L1492.2242405956054 371.5296196757029Q1496.990929423589 368.7164918427946 1501.4255128824097 368.50160013333624Q1505.860096341231 368.286708423878 1509.239756862711 370.12305575924876L1509.239756862711 370.12305575924876ZM1601.779941199426 477.0219134097669L1577.458106810739 491.0875525743088Q1572.6718823728047 493.9006804072172 1569.018723312014 491.7908345325359Q1565.365564251223 489.6809886578546 1565.365564251223 484.0547329920378L1565.365564251223 484.0547329920378L1583.4946102855215 473.50550361863145L1583.4946102855215 377.85915729974676L1595.7434377246436 370.82633771747584L1595.7434377246436 466.47268403636053L1614.0287686385477 455.92345466295416L1614.0287686385477 360.2771083440694L1626.2580604677191 353.2442887617985L1626.2580604677191 434.82499591614135Q1626.2580604677191 438.4781549769321 1624.4998555721513 442.69784672629464Q1622.7416506765835 446.9175384756572 1620.006665283478 450.51209070659564Q1617.2521442804223 454.0871073275834 1614.0287686385477 455.92345466295416L1614.0287686385477 455.92345466295416Q1614.0287686385477 459.57661372374486 1612.3291705728325 463.79630547310745Q1610.6491081170677 468.01599722247 1607.8359802841594 471.61054945340845Q1605.0228524512509 475.18556607439615 1601.779941199426 477.0219134097669L1601.779941199426 477.0219134097669ZM1565.365564251223 388.4083866731532L1565.365564251223 484.0547329920378Q1560.4425905436335 486.86786082494626 1556.769895872892 484.75801495026496Q1553.1167368121014 482.64816907558367 1553.1167368121014 477.0219134097669L1553.1167368121014 477.0219134097669L1553.1167368121014 395.4412062554241L1565.365564251223 388.4083866731532ZM1614.0287686385477 346.21146917952757L1626.2580604677191 353.2442887617985L1614.0287686385477 360.2771083440694L1601.779941199426 353.2442887617985L1614.0287686385477 346.21146917952757ZM1601.779941199426 353.2442887617985L1614.0287686385477 360.2771083440694L1614.0287686385477 455.92345466295416L1601.779941199426 448.8906350806832L1601.779941199426 353.2442887617985ZM1601.779941199426 448.8906350806832L1614.0287686385477 455.92345466295416L1595.7434377246436 466.47268403636053L1583.4946102855215 459.43986445408956L1601.779941199426 448.8906350806832ZM1571.4020677260057 466.47268403636053L1583.4946102855215 473.50550361863145L1565.365564251223 484.0547329920378L1553.1167368121014 477.0219134097669L1571.4020677260057 466.47268403636053ZM1553.1167368121014 477.0219134097669L1565.365564251223 484.0547329920378Q1565.365564251223 489.6809886578546 1569.018723312014 491.7908345325359L1569.018723312014 491.7908345325359L1556.769895872892 484.75801495026496Q1553.1167368121014 482.64816907558367 1553.1167368121014 477.0219134097669L1553.1167368121014 477.0219134097669ZM1583.4946102855215 363.7935181352049L1595.7434377246436 370.82633771747584L1583.4946102855215 377.85915729974676L1571.4020677260057 370.82633771747584L1583.4946102855215 363.7935181352049ZM1571.4020677260057 370.82633771747584L1583.4946102855215 377.85915729974676L1583.4946102855215 473.50550361863145L1571.4020677260057 466.47268403636053L1571.4020677260057 370.82633771747584ZM1553.1167368121014 381.3755670908822L1565.365564251223 388.4083866731532L1553.1167368121014 395.4412062554241L1540.88744498293 388.4083866731532L1553.1167368121014 381.3755670908822ZM1540.88744498293 388.4083866731532L1553.1167368121014 395.4412062554241L1553.1167368121014 477.0219134097669Q1553.1167368121014 482.64816907558367 1556.769895872892 484.75801495026496L1556.769895872892 484.75801495026496L1544.540604043721 477.725195367994Q1540.88744498293 475.61534949331275 1540.88744498293 469.989093827496L1540.88744498293 469.989093827496L1540.88744498293 388.4083866731532Z " fill="#f3c702" transform="matrix(0.5380450288638784,0,0,0.5380450288638784,0,73.36926948840085)"/></g></svg>